<?xml version="1.0" encoding="iso-8859-1"?>
<!-- Generator: Adobe Illustrator 23.0.1, SVG Export Plug-In . SVG Version: 6.00 Build 0)  -->
<svg version="1.1" id="Layer_1" xmlns="http://www.w3.org/2000/svg" xmlns:xlink="http://www.w3.org/1999/xlink" x="0px" y="0px"
	 viewBox="0 0 512 512" style="enable-background:new 0 0 512 512;" xml:space="preserve">
<g>
	<g>
		<path style="fill:none;stroke:#FFFFFF;stroke-width:4.898;stroke-linecap:round;stroke-linejoin:round;" d="M268.245,137.767
			c5.385,15.086,4.95,32.477,12.65,46.559c7.805-12.77,12.327-21.462,18.486-32.248c5.498-6.713,12.986-11.886,21.462-13.204
			c0,0,143.488-6.377,157.688-5.511c0.546,5.318-10.008,13.208-16.719,13.655c-2.316,5.394-11.619,9.543-16.372,10.5
			c-2.393,4.684-5.145,6.333-8.167,6.667l-16.08,0.874c-2.195,6.279-10.99,5.514-12.65,11.012c-2.739,1.533-0.926,4.18-4.676,4.289
			c4.782,3.852,9.656,9.538,13.544,15.127c75.7,109.227-33.5,159.847-59.769,154.726c-16.124-2.03-22.94-5.443-34.934-12.156
			c-16.84,6.923-35.652,13.197-54.685,14.532l-0.557,0.436l19.025,24.876c0.232,1.642-0.309,3.301-1.298,4.178
			c-1.335,1.312-3.193,2.08-5.06,1.312c-8.376-9.793-15.642-20.028-23.45-30.036h-2.971c-8.465,10.561-14.746,20.145-23.761,30.036
			c-2.206,0.441-4.735-0.771-5.843-2.859v-2.857c6.273-8.587,12.889-16.621,18.834-24.87c-19.267-1.865-37.423-6.931-54.911-14.747
			c-17.613,5.719-19.818,7.364-32.038,8.699c-55.138,5.953-133.587-45.903-68.724-144.556c0,0,13.482-16.504,13.366-16.719
			l4.134-5.783c-1.199-5.121-4.238-2.868-5.551-6.49c-4.516-0.987-7.598-4.507-10.243-7.928c-8.26-0.878-21.566,1.547-25.418-8.69
			c-6.601,0.335-12.316-2.971-15.073-8.478c-5.059-1.427-10.899-2.748-13.979-7.703c0.105-3.299-2.635-3.956,0.331-6.589
			l154.5,5.269c23.888,3.195,27.958,29.611,40.056,45.456c3.198-4.627,4.516-10.025,6.617-15.077
			c1.304-6.06,1.861-12.438-1.772-17.607c-1.646-1.983-4.397-4.292-7.698-3.75c-2.198,0.559-4.737-0.542-6.601,1.542
			c-1.207,0.544-0.777,2.424-2.092,2.209c-1.425-2.321,0.334-4.627,0.552-6.937c1.866-4.296,5.392-9.025,10.557-9.467l6.277,0.556
			c1.544-4.839,6.714-6.604,10.888-7.713C254.378,129.188,263.283,130.402,268.245,137.767z"/>
		<path d="M268.245,137.767c5.385,15.086,4.95,32.477,12.65,46.559c7.805-12.77,12.327-21.462,18.486-32.248
			c5.498-6.713,12.986-11.886,21.462-13.204c0,0,143.488-6.377,157.688-5.511c0.546,5.318-10.008,13.208-16.719,13.655
			c-2.316,5.394-11.619,9.543-16.372,10.5c-2.393,4.684-5.145,6.333-8.167,6.667l-16.08,0.874
			c-2.195,6.279-10.99,5.514-12.65,11.012c-2.739,1.533-0.926,4.18-4.676,4.289c4.782,3.852,9.656,9.538,13.544,15.127
			c75.7,109.227-33.5,159.847-59.769,154.726c-16.124-2.03-22.94-5.443-34.934-12.156c-16.84,6.923-35.652,13.197-54.685,14.532
			l-0.557,0.436l19.025,24.876c0.232,1.642-0.309,3.301-1.298,4.178c-1.335,1.312-3.193,2.08-5.06,1.312
			c-8.376-9.793-15.642-20.028-23.45-30.036h-2.971c-8.465,10.561-14.746,20.145-23.761,30.036
			c-2.206,0.441-4.735-0.771-5.843-2.859v-2.857c6.273-8.587,12.889-16.621,18.834-24.87c-19.267-1.865-37.423-6.931-54.911-14.747
			c-17.613,5.719-19.818,7.364-32.038,8.699c-55.138,5.953-133.587-45.903-68.724-144.556c0,0,13.482-16.504,13.366-16.719
			l4.134-5.783c-1.199-5.121-4.238-2.868-5.551-6.49c-4.516-0.987-7.598-4.507-10.243-7.928c-8.26-0.878-21.566,1.547-25.418-8.69
			c-6.601,0.335-12.316-2.971-15.073-8.478c-5.059-1.427-10.899-2.748-13.979-7.703c0.105-3.299-2.635-3.956,0.331-6.589
			l154.5,5.269c23.888,3.195,27.958,29.611,40.056,45.456c3.198-4.627,4.516-10.025,6.617-15.077
			c1.304-6.06,1.861-12.438-1.772-17.607c-1.646-1.983-4.397-4.292-7.698-3.75c-2.198,0.559-4.737-0.542-6.601,1.542
			c-1.207,0.544-0.777,2.424-2.092,2.209c-1.425-2.321,0.334-4.627,0.552-6.937c1.866-4.296,5.392-9.025,10.557-9.467l6.277,0.556
			c1.544-4.839,6.714-6.604,10.888-7.713C254.378,129.188,263.283,130.402,268.245,137.767 M117.903,170.177
			c3.959,14.964,9.872,53.007,46.781,62.68C150.932,214.256,117.903,170.177,117.903,170.177z M373.66,181.679v-1.103l-29.056,1.103
			c3.524,2.752,8.03,4.186,10.786,7.598c-2.415,5.063-5.718,7.693-10.014,10.561c1.655,1.653,4.627,2.427,5.063,4.841
			c-2.52,4.182-7.263,7.712-11.657,9.462c1.103,1.878,3.838,2.09,3.743,4.732c-3.639,4.405-7.924,7.05-12.776,8.475
			c0.993,1.541,2.857,2.644,2.977,4.506c-3.407,3.418-7.929,6.385-12.985,7.166c0.76,1.425,2.199,2.742,2.409,4.398
			c-3.512,3.189-8.458,4.841-13.196,4.841l1.875,4.179c-3.854,5.501-11.233,5.175-17.507,5.068c0.882,2.416,1.991,4.732,1.335,7.367
			l2.416,3.96c-1.428,4.517,2.42,6.171,1.868,10.234c-0.324,1.865-2.855,1.98-2.971,3.745c8.144-8.581,14.965-20.246,22.995-29.047
			l-0.221-0.223l36.984-48.635L373.66,181.679 M136.191,181.134c2.416,3.192,4.288,6.046,6.916,9.017l68.678,89.474v-2.647
			c3.967-2.748-0.551-9.023,3.967-11.547c-0.772-2.865,1.216-5.51,1.313-7.925c-5.28,0.874-12.65,0-16.948-3.965
			c-0.656-1.863,1.103-3.41,1.541-5.061c-4.174-0.221-8.026-1.428-11.555-3.19c-4.392-1.424,0.667-3.967,0.543-6.269
			c-4.935-0.667-9.008-3.195-12.744-6.942c0.314-1.865,2.415-3.629,2.633-4.729c-4.849-1.426-10.119-4.629-12.658-9.024l3.968-3.957
			c-4.842-1.656-8.701-4.845-11.555-9.242c-0.334-2.537,3.08-3.308,4.726-4.955c-0.552-0.659-1.103-0.997-1.872-1.103
			c-3.188-2.097-7.808-6.495-7.932-10.561l10.565-6.61C154.565,181.679,146.424,181.232,136.191,181.134 M168.641,238.465
			l-1.533,0.996c-15.843,18.478-25.752,44.674-19.039,69.765c5.06,13.323,17.603,22.223,31.476,25.311l0.543-0.452
			c-8.796-5.046-16.946-9.782-24.316-16.378c0.113-2.543,2.633-4.296,3.956-6.065c1.539-1.424,0.882-2.851-0.772-3.739
			c-3.948-0.542-7.256,0.452-10.336-2.857c-1.323-2.305-1.874-3.965-1.541-6.931l16.615-25.096c1.321-1.765,3.413-4.186,6.048-3.954
			c11.343,1.649,22.338,8.249,29.83,17.713l-2.318,5.278c2.205-3.625,7.381-1.754,10.794-2.636
			C194.296,271.695,182.305,255.741,168.641,238.465 M341.422,238.465c-12.549,16.957-26.297,33.67-38.859,51.174
			c3.745,0.441,8.597-1.103,10.902,2.415c-0.656-1.974-1.986-3.739-2.427-5.831c5.068-6.049,11.442-10.564,17.724-13.757
			c5.392-1.103,12.11-7.036,17.165-0.987l17.717,26.959c0.547,2.312-0.875,4.522-1.868,6.607c-3.53,5.289-9.567-0.882-12.429,4.395
			c1.864,2.982,4.94,4.962,5.282,8.266c-8.15,6.37-16.399,11.983-25.083,16.83c13.751-2.527,27.72-11.988,32.782-25.864
			c0.937-1.763,0.81-3.276,1.604-5.149c2.631-20.822-2.922-37.107-12.506-53.726C348.013,246.28,345.823,240.884,341.422,238.465
			 M273.862,272.246l-5.297,6.067c1.878,10.67,4.525,20.678,6.828,31.463c4.4-1.421-0.552-4.19-0.214-6.606
			c-1.659-2.635,0.542-4.952,0.986-7.378c1.981-3.738,5.938-4.511,9.796-4.841c-0.122-1.312,0.221-2.748-0.232-3.96
			c-1.872,0.55-3.295,1.874-5.598,1.324c-3.757-1.109-2.424-5.504-4.187-7.589C276.815,277.528,274.51,275.112,273.862,272.246
			 M236.549,272.798c-0.342,3.088-2.534,5.283-2.092,8.69c-1.216,1.77-0.775,4.191-2.429,5.834c-2.304,1.991-4.055,0.779-6.601,0
			c-0.976,0.779-1.32,2.642-0.755,3.96l5.278,0.773c4.618,1.322,5.169,5.172,6.057,9.246c1.095,3.524-5.627,5.94-1.001,8.69
			c2.526-9.025,4.407-18.489,6.604-27.731C244.679,277.419,238.419,275.543,236.549,272.798z M388.741,176.613
			c-14.425,18.83-28.933,36.981-43.133,56.243c21.023-5.233,34.476-27.472,37.336-33.728
			C385.803,192.874,388.625,181.799,388.741,176.613"/>
		<path style="fill:#F3C727;" d="M259.773,137.34c-4.08,6.599-12.11,0.218-17.392,4.402c-1.323-1.332-4.513-1.779-2.867-4.402
			c0.659-2.427,3.198-2.541,4.965-3.519C250.082,133.821,255.369,134.69,259.773,137.34z"/>
		<path style="fill:#F3C727;" d="M267.255,152.302c1.219,8.365,1.966,16.83,4.941,24.311c-4.175,2.094-9.675,2.094-12.655,6.051
			c-1.205,2.974-2.746,5.73-4.172,8.492c-3.195-3.206-2.862-9.26-7.706-11.122l-8.15-2.639c2.429-7.487,3.639-18.715-1.095-25.868
			c2.093,0.221,4.629,2.758,7.16,2.421c-2.638-4.18-7.598-6.273-11.897-8.25c0.662-0.109,1.546,0.338,1.869-0.439
			c-0.984-2.203-3.852-2.092-6.162-2.421l-4.939,0.768c5.6-5.725,14.961-0.665,21.665,1.095c1.431,1.335,2.54,2.871,4.412,2.318
			c3.626-3.08,7.59-5.61,11.665-7.601C266.591,141.847,265.598,148.004,267.255,152.302z"/>
		<path style="fill:#F3C727;" d="M325.784,143.606c-18.809,10.014-24.859,32.351-36.971,48.645c-1.32-1.656-6.939-2.547-3.622-5.836
			C296.41,170.788,302.244,144.48,325.784,143.606z"/>
		<path style="fill:#F3C727;" d="M226.306,188.833l-4.508,3.627l-22.225-35.646c-4.629-4.951-9.129-9.905-15.299-12.876
			C209.143,144.374,214.762,172.762,226.306,188.833z"/>
		<path style="fill:#F3C727;" d="M277.269,188.833c-5.395,3.963-11.671,6.819-18.828,7.371c1.1-3.953,4.081-7.809,5.621-11.878
			c3.287-0.775,6.055-2.647,9.458-3.192L277.269,188.833z"/>
		<path style="fill:#F3C727;" d="M247.663,186.635l4.511,9.568c-7.369-0.105-13.428-3.294-19.038-7.371l3.736-7.481
			C240.512,183.005,245.794,182.456,247.663,186.635z"/>
		<path style="fill:#FFFFFF;" d="M297.072,204.345c-2.316,31.259-18.046,60.633-42.038,80.341
			c-23.552-20.47-38.617-48.311-41.709-79.561c5.068-4.617,10.781-8.701,16.398-12.665c11.563,8.366,28.842,11.117,42.261,4.733
			c3.086-1.751,5.938-3.295,8.911-4.943L297.072,204.345z"/>
		<path style="fill:#FFFFFF;" d="M140.689,226.802c0.229,1.097-21.122,35.981-21.34,55.788
			c-2.416,20.69,10.786,38.737,27.949,47.545c6.716,3.309,13.97,5.057,21.343,6.816c-10.673,1.983-31.898-2.416-32.678-2.416
			c-14.961-4.518-28.493-16.065-36.748-28.168c-14.635-30.55-3.99-60.845-3.116-62.381c4.745-14.853,17.174-28.933,26.093-42.356
			C126.273,210.332,133.109,219.754,140.689,226.802z"/>
		<path style="fill:#FFFFFF;" d="M412.177,293.156c-5.443,17.883-18.478,30.378-18.478,30.378
			c-16.075,14.415-40.504,20.36-59.985,14.741c22.57-2.862,47.435-12.982,55.242-36.755c7.153-27.19-6.716-52.388-19.25-74.719
			c5.938-6.051,11.917-13.147,16.097-20.525C411.395,238.806,417.625,275.279,412.177,293.156z"/>
		<path style="fill:#F3C727;" d="M349.116,190.151c-1.533,2.644-4.395,4.514-7.152,6.273c-3.734-0.982-6.596-4.173-9.784-6.273
			c2.421-1.756,3.728-5.059,5.057-7.487L349.116,190.151z"/>
		<path style="fill:#F3C727;" d="M178.216,190.374c-3.73,2.086-7.144,8.143-11.66,5.278c-1.976-1.536-4.734-3.298-4.955-5.501
			l11.555-7.146C174.707,185.308,176.027,188.607,178.216,190.374z"/>
		<path style="fill:#F3C727;" d="M343.849,204.345c-0.232,1.884-2.762,3.094-4.301,4.298c-6.491,6.058-9.898-4.069-14.751-6.378
			c1.77-2.206,3.965-5.071,4.749-8.148L343.849,204.345z"/>
		<path style="fill:#F3C727;" d="M181.086,194.34c0.885,2.977,2.198,6.169,4.729,7.925l-10.014,8.696
			c-3.634-0.776-6.725-3.419-9.463-5.835C170.959,200.941,176.352,197.745,181.086,194.34z"/>
		<path style="fill:#F3C727;" d="M335.909,218.324c-2.416,2.538-5.707,3.971-9.01,4.842c-2.862-2.639-5.951-6.828-8.486-10.128
			c1.985-1.645,2.536-4.395,3.97-6.594C326.998,210.623,331.839,213.695,335.909,218.324z"/>
		<path style="fill:#F3C727;" d="M192.203,213.038c-2.31,3.852-5.505,6.939-8.158,10.346c-3.51-0.665-6.59-2.415-9.559-4.511
			c3.416-3.738,8.911-8.356,13.543-12.104C188.903,208.861,190.444,211.394,192.203,213.038z"/>
		<path style="fill:#F3C727;" d="M326.115,230.765c-2.862,1.645-6.05,3.415-9.23,3.415l-6.056-10.031
			c1.864-2.198,3.849-4.278,4.953-6.818C319.19,221.849,323.363,225.811,326.115,230.765z"/>
		<path style="fill:#F3C727;" d="M199.898,224.15c-3.738,3.086-3.843,14.316-11.108,9.249c-1.655-0.542-4.298-1.751-4.298-3.405
			c3.405-4.182,6.934-8.474,10.13-12.438C196.381,219.754,197.255,222.72,199.898,224.15z"/>
		<path style="fill:#F3C727;" d="M315.782,241.322c-2.421,1.872-5.609,1.872-8.696,2.096c-2.206-3.518-3.524-7.928-5.283-11.885
			l5.283-4.184C310.713,231.533,312.583,236.802,315.782,241.322z"/>
		<path style="fill:#F3C727;" d="M203.863,243.418c-3.079,0.327-6.379-0.223-9.024-1.544c1.864-5.071,6.049-9.246,8.131-14.305
			l5.847,3.964L203.863,243.418z"/>
		<path style="fill:#F3C727;" d="M305.216,250.906c-3.199,2.087-8.26,2.635-12.446,1.532l-2.851-5.831
			c2.421-3.748,3.629-8.031,5.283-12.1c0.982-0.327,1.655-1.109,2.851-0.768L305.216,250.906z"/>
		<path style="fill:#F3C727;" d="M220.478,246.936l-2.635,5.719c-4.202,0.338-9.129,0.994-12.438-1.54l7.152-17.161l2.633,0.553
			L220.478,246.936z"/>
		<path style="fill:#F3C727;" d="M289.687,255.853v1.653c-0.549-0.221-1.635-0.997-1.635-1.874l0.323-1.656
			C289.031,254.093,289.478,255.196,289.687,255.853z"/>
		<path style="fill:#F3C727;" d="M222.361,254.311c0.543,1.206,0.096,2.644-1.114,3.412
			C220.811,256.838,220.811,254.54,222.361,254.311z"/>
		<path style="fill:#F3C727;" d="M225.427,262.238c-0.212-0.551-0.868-1.318-0.212-1.87
			C225.319,260.693,226.202,261.581,225.427,262.238z"/>
		<path style="fill:#F3C727;" d="M221.468,264.543l-0.761,0.888c-0.998-0.888-0.334-2.322-0.543-3.53
			C221.915,261.016,221.363,263.554,221.468,264.543z"/>
		<path style="fill:#F3C727;" d="M290.134,261.686c0.337,0.984,0.667,2.642-0.215,3.407c-1.428-0.436-0.546-2.309-0.78-3.407
			H290.134z"/>
		<path style="fill:#F3C727;" d="M229.389,266.749l-0.218,0.215l-0.552-1.324C228.951,265.981,229.723,265.981,229.389,266.749z"/>
		<path style="fill:#F3C727;" d="M281.998,265.64c-0.334,0.452-0.124,0.991-0.551,1.324v-1.324H281.998z"/>
		<rect x="224.994" y="267.735" style="fill:#F3C727;" width="0.221" height="1.097"/>
		<polygon style="fill:#F3C727;" points="285.729,268.832 285.415,267.735 285.729,267.735 		"/>
		<path style="fill:#F3C727;" d="M292.55,270.928c-0.871,0.667-1.864,0-2.631-0.557v-0.54c0.32,0.54,0.882,0.221,1.313,0.325
			l1.109-1.092C292.23,269.72,292.77,270.156,292.55,270.928z"/>
		<path style="fill:#F3C727;" d="M220.707,270.156c-0.447,0.656-1.549,1.324-2.663,0.993l0.35-1.763
			C218.937,270.051,219.821,270.812,220.707,270.156z"/>
		<rect x="278.242" y="269.385" style="fill:#F3C727;" width="0.342" height="1.328"/>
		<path style="fill:#F3C727;" d="M220.707,275.66c0.105,0.324-0.229,0.882,0.323,1.092l-3.965-1.307L220.707,275.66z"/>
		<path style="fill:#F3C727;" d="M293.664,275.445c-1.434,0.215-2.758,0.76-3.977,1.307
			C289.478,274.331,292.34,275.886,293.664,275.445z"/>
		<path style="fill:#F3C727;" d="M229.723,280.175c-1.751,1.313-4.296-1.427-6.383-2.094c1.979-0.882,3.195,1.432,5.28,0.986
			L229.723,280.175z"/>
		<path style="fill:#F3C727;" d="M287.055,278.081c-2.085,0.765-3.637,2.756-6.16,2.304c0.552-2.072,3.193-1.318,4.52-2.636
			C285.961,277.866,286.617,277.528,287.055,278.081z"/>
		<path style="fill:#F3C727;" d="M214.649,282.811c-0.885,0.331-1.218-1.213-1.874-1.879
			C213.431,281.598,214.762,281.708,214.649,282.811z"/>
		<path style="fill:#F3C727;" d="M192.967,285.453l-13.981,2.421l-15.073,18.164l-2.862-1.875
			c4.622-8.911,11.668-16.841,16.405-25.85l-0.325-2.653c-2.205-0.768-1.996,3.186-4.516,2.977
			c-1.541-0.103-2.871-0.771-3.973-2.212c-0.212-1.092-0.43-2.519,0.882-3.076C178.216,275.112,186.48,278.748,192.967,285.453z"/>
		<path style="fill:#F3C727;" d="M341.964,274.121c0.447,1.986-1.092,2.857-2.079,3.96c-2.101,0.888-4.291-0.215-5.074-2.097
			c0-0.651-0.656-0.539-1.097-0.871c-1.107,1.43-0.546,3.083,0,4.513c4.622,8.475,11.117,16.057,15.402,24.538l-2.636,1.655
			l-14.862-17.943l-13.978-2.421c6.17-6.607,14.645-10.891,23.782-12.104L341.964,274.121z"/>
		<path style="fill:#F3C727;" d="M359.13,299.751c-0.882,2.097-2.636,2.658-4.5,3.419l-1.322-0.325
			c-4.522-6.937-9.243-13.759-13.422-20.805c2.079-0.551,4.069-1.763,5.491-3.193L359.13,299.751z"/>
		<path style="fill:#F3C727;" d="M157.102,303.17c-1.768,0.552-3.632-0.54-5.068-1.649c-1.103-0.667-1.103-2.41,0-3.083
			l12.65-19.372l6.17,3.524L157.102,303.17z"/>
		<path style="fill:#F3C727;" d="M191.092,295.467c-2.302-1.208-4.936-2.746-6.601-4.73c3.091-0.553,6.278-0.656,9.244-1.318
			L191.092,295.467z"/>
		<path style="fill:#F3C727;" d="M326.115,290.736c-2.184,1.653-4.291,3.308-6.925,4.515l-2.642-5.833L326.115,290.736z"/>
		<path style="fill:#F3C727;" d="M272.197,312.965c-0.868,0.991-2.639,0.109-3.632,0.771c-2.42-10.014-3.961-20.579-4.835-30.924
			l1.318-1.103C267.465,292.163,269.891,302.519,272.197,312.965z"/>
		<path style="fill:#F3C727;" d="M247.115,283.583c-0.998,10.35-3.41,20.028-4.734,30.152l-3.962-0.325
			c2.201-10.565,4.844-20.916,7.16-31.371L247.115,283.583z"/>
		<path style="fill:#F3C727;" d="M264.28,313.956c-0.445,0.551-1.212,0.221-1.871,0.331l-3.083-26.966
			c0.334-0.221,0.447-0.76,0.769-0.76L264.28,313.956z"/>
		<path style="fill:#F3C727;" d="M251.405,287.874l-2.978,26.413h-2.082l3.957-27.51
			C250.967,286.562,251.085,287.433,251.405,287.874z"/>
		<path style="fill:#F3C727;" d="M258.775,314.287h-6.924l2.633-24.103c0.55,0,1.209,0.117,1.656-0.221L258.775,314.287z"/>
		<path style="fill:#F3C727;" d="M195.391,304.714c0.769,1.423,1.864-0.447,2.87,0.546c3.618,3.304,11.206,2.642,11.326,8.696
			c0.764,0.221,1.428,1.335,2.198,0.551c0.659-0.982,1.646-1.097,2.321-2.085c6.485,1.655,10.321,3.435,19.254,4.941
			c8.932,1.507,17.933,2.098,25.752,1.856c13.034-0.402,26.059-2.675,37.409-6.797l2.861,2.305c1.87-0.772,2.311-2.635,2.421-4.394
			l11.337-5.289c1.434,1.208,2.311-0.987,2.642-1.649l14.299-9.462l1.317,0.546l17.178,21.561l-0.331,0.882
			c-15.583,11.881-32.685,20.674-51.266,25.885c-7.403,2.075-22.912,4.487-22.912,4.487l-3.949,0.452c0,0-9.164,0.709-13.707,0.771
			c-13.294,0.184-26.325-1.29-38.617-4.406c-6.093-1.544-18.772-6.054-18.772-6.054c-5.72-2.22-11.319-4.831-16.754-7.802
			c-7.213-3.942-14.136-8.517-20.667-13.658l18.156-22.664C184.939,297.556,190.988,300.75,195.391,304.714z"/>
		<path style="fill:#FFFFFF;" d="M194.839,297.888c-0.761-1.43,1.321-2.316,1.321-3.739
			C195.62,295.357,196.16,297.226,194.839,297.888z"/>
		<path style="fill:#FFFFFF;" d="M315.782,297.556c-0.882-0.109-1.208-1.322-0.987-2.304
			C314.899,295.908,316.002,296.564,315.782,297.556z"/>
		<path style="fill:#F3C727;" d="M294.976,290.736c0.116,1.318-1.092,1.984-2.206,2.42c-3.847-0.215-2.636-4.511-3.397-7.153
			c0.546-0.881,0.987-1.317,1.858-1.868C293.223,285.568,293.664,288.536,294.976,290.736z"/>
		<path style="fill:#F3C727;" d="M221.247,286.777c-1.313,1.98,0.885,6.054-2.853,6.379c-1.426,0.342-2.424-0.662-2.975-1.655
			c0.552-2.636,2.424-4.61,3.196-7.146C220.26,284.245,220.811,285.568,221.247,286.777z"/>
		<path style="fill:#F3C727;" d="M309.18,295.252c-2.756,1.874-6.936,0.982-9.799-0.331c0.337-1.324,2.101-1.213,3.182-1.544
			C305.106,293.377,308.068,293.156,309.18,295.252z"/>
		<path style="fill:#F3C727;" d="M211.233,294.7c-2.52,1.423-7.036,2.311-9.793,0.767c-0.325-1.533,1.444-1.208,2.092-1.87
			C206.165,293.818,209.256,293.057,211.233,294.7z"/>
		<path style="fill:#F3C727;" d="M229.389,297.126c-1.646,1.986-5.165,0.762-7.362,0c0-1.444,1.533-1.113,2.079-1.874
			C226.089,295.467,227.972,295.682,229.389,297.126z"/>
		<path style="fill:#F3C727;" d="M288.375,296.234c-0.764,2.205-4.069,1.543-6.377,1.655c-0.334-0.332-1.103-0.332-0.775-1.103
			C282.881,295.031,286.408,294.48,288.375,296.234z"/>
		<path style="fill:#F3C727;" d="M298.054,302.068c0.66,1.328-0.867,1.543-1.533,1.874c-2.2-0.331-2.09-3.53-3.199-5.284
			C295.644,297.667,297.392,299.862,298.054,302.068z"/>
		<path style="fill:#F3C727;" d="M216.731,298.438c-0.105,1.759-0.648,4.302-1.856,5.725c-0.882-0.331-1.988-0.221-2.644-1.318
			C212.887,300.75,213.764,297.888,216.731,298.438z"/>
		<path style="fill:#FFFFFF;" d="M309.18,301.3l-6.275,3.193c-0.772-0.993-1.329-2.646-1.103-4.296
			c2.427,0.215,4.406,0.123,6.827-0.221L309.18,301.3z"/>
		<path style="fill:#FFFFFF;" d="M208.049,304.494l-6.83-2.973c1.436-2.751,5.07,0,7.598-1.324L208.049,304.494z"/>
		<path style="fill:#F3C727;" d="M287.271,302.068c-2.079,3.412-4.506,7.487-7.699,9.799
			C281.998,308.231,284.419,304.935,287.271,302.068z"/>
		<path style="fill:#F3C727;" d="M223.891,302.409c2.311,3.96,4.842,5.713,7.152,9.684l-1.094-0.226l-6.827-9.458H223.891z"/>
		<path style="fill:#FFFFFF;" d="M292.34,308.446l-5.285,1.544c0.215-1.544,2.422-3.292,3.63-4.946
			C290.802,306.038,292.55,306.909,292.34,308.446z"/>
		<path style="fill:#FFFFFF;" d="M223.673,309.991l-5.279-1.318c-0.436-1.097,0.982-2.199,0.982-3.413
			C220.916,306.137,222.458,308.354,223.673,309.991z"/>
		<path d="M295.969,204.13c-2.868,30.595-17.057,58.653-40.6,78.681c-23.766-19.807-37.745-47.643-40.72-78.132l14.522-10.893
			c9.793,6.5,21.691,10.121,34.112,7.706c6.275-1.432,12.11-4.077,17.392-7.921C286.286,196.424,290.36,201.265,295.969,204.13z"/>
		<path d="M189.78,303.396c0.664,1.428-0.99,1.428-1.541,2.085h-5.286C182.846,301.736,187.249,303.501,189.78,303.396z"/>
		<path d="M335.594,315.611c0.651,3.629,0.314,7.488-2.101,10.234c-3.07,2.526-7.152,3.414-10.786,3.414
			c4.406-2.432,11.668-6.06,11.343-12.336c0.105-4.285-1.87-7.698-4.504-10.885c0.204,2.973,1.748,6.497,1.097,9.793
			c-1.439-1.219-0.667-3.849-1.66-5.497c-1.208-3.965-4.401-7.374-3.954-11.676C331.079,301.627,334.927,308.79,335.594,315.611z"/>
		<path d="M323.705,306.799c-1.324,0.991,0.226,1.765,0.761,2.212l0.331,2.63c0.783,0.109,3.309-1.204,3.408,0.782
			c-0.226,5.166-4.274,7.699-7.908,10.556l2.085,0.221c1.208,4.405-4.945,5.282-5.834,9.031c-1.097,0.871-2.752,1.307-4.18,0.768
			c-1.87-1.103-1.759-3.524-2.085-5.51c-7.378,0.993-2.867,11.446-10.019,12.329c-1.77,0.542-3.513-0.221-4.841-1.542
			c0.116-0.327-0.331-0.542-0.447-0.762c-3.524,4.069-9.247,5.392-14.519,3.96v-0.564c5.057-0.324,10.345-1.754,13.207-6.593
			c1.539-3.96,0.656-9.69,4.736-11.896c1.423,0.558,0.54,2.101,0.767,3.193c-3.082,2.107-3.082,6.832-2.415,9.8
			c0.745,1.318,2.63,0.667,3.739,0.436c2.073-0.983,2.956-2.631,3.739-4.728c-1.213,0-1.666-0.215-2.653-0.986
			c-0.866-1.097-0.651-2.967-0.325-4.291c0.441-1.113,1.875-0.882,2.642-0.551c0.772,0.447,1.881,1.875,2.647,0.551
			c0.767-0.331-0.232-0.882-0.232-0.998c0.116-2.189,0.557-4.622,2.322-5.607c1.317,0,1.763,0.986,2.409,1.863v1.318
			c2.322-0.436,1.986-3.848,1.544-5.822c-0.436-1.87-1.754-4.175-3.953-4.73c-2.206,2.089,0,4.951-1.765,7.152
			c-2.416-2.096,0-5.834,0-8.685c0.221-1.888,1.874-2.653,3.418-2.212c2.857,1.544,4.395,5.403,4.511,8.475
			c0.331,3.407-1.103,6.716-2.984,9.567c-0.331,1.555,0.557,2.874,1.655,3.418c1.986,0.321,3.193-1.427,3.971-2.64
			c-0.888-5.399,4.504-8.256,8.144-11.332c-2.101-0.32-5.079,4.615-6.391,1.539c-0.105-2.862,5.276-3.193,2.96-6.611l-1.086,2.1
			c-0.666-2.53-0.998-5.729,0.32-8.475C322.928,304.058,322.597,306.137,323.705,306.799z"/>
		<path d="M208.049,312.965c-4.186,0-9.684,0-13.971-1.097c3.728-2.427,8.682-0.436,13.199-0.553
			C207.828,311.982,208.267,311.982,208.049,312.965z"/>
		<path d="M174.486,318.471c4.177-1.427,6.049-8.595,11.329-6.83c-0.781,2.762-2.862,5.723-1.324,8.917
			c7.932,9.131,20.808,11.672,32.799,8.701c0.885,0.545,0.551,1.759,0.221,2.415c1.426,0.771,2.31-1.108,3.736-0.768l-0.54,1.871
			c2.52,0.324,2.302-3.415,4.287-3.976c1.42-1.197,3.524-2.526,5.727-1.632c1.199,0.987,1.307,3.076,3.185,1.87
			c0.998-0.882,1.213-2.096,1.099-3.425c-0.548-0.767-0.771,0.353-1.323,0.232c-0.546-2.531,1.662-4.517,3.19-6.606l0.996,0.341
			c0.769,4.06,0.328,8.46-2.862,10.986c-1.645,1.664-3.628,1.996-5.616,1.664c0-1.664-1.98-2.756-3.405-1.874
			c-0.665,1.539,3.405,0.098,1.872,2.421c-3.185,2.298-8.035,4.175-12.104,2.636c-0.772-0.656-1.324-1.424-1.103-2.416l0.226-0.221
			l-0.769-0.547c-11.012,2.963-23.118,0-31.153-7.709c-1.211-1.763-2.085-4.62-1.315-7.157c0.334-1.097,1.533-2.201,1.095-3.408
			c-4.069,1.539-5.498,5.833-9.242,7.925c-2.531,0-1.867-3.194-1.646-4.732c1.208-3.193,3.736-4.4,6.058-6.385
			C176.904,313.185,172.388,315.164,174.486,318.471z"/>
		<path d="M193.736,315.831c-0.877,0-0.543,1.092-0.982,1.533c0.877,0.772-0.447,1.322-0.769,1.875h-1.103
			c-1.323-1.986,0.982-3.524,2.415-4.192h0.439V315.831z"/>
		<path d="M206.938,318.245c0.665,0.226,1.111-0.76,1.662,0c-0.333,1.103-1.094,1.656-2.101,2.312
			c-1.533-0.553-4.395,0.324-4.508-1.871c-0.334-0.98,0.893-1.642,1.541-2.089C203.863,319.239,206.29,316.267,206.938,318.245z"/>
		<path d="M278.818,319.544c-5.172,3.513-11.108,6.155-16.614,9.249l-0.546-0.551c4.063-5.184,10.223-6.611,15.616-9.462h1.544
			V319.544z"/>
		<path d="M290.471,320.342c1.318,6.374-1.77,11.773-5.613,16.062c-6.935,5.068-16.069,8.034-24.762,5.618
			c-3.301-1.324-3.623-4.851-5.061-7.487c-2.421,2.857-0.55,8.039-2.86,11.117c-1.872,1.103-2.984-0.673-3.748-2.097
			c-0.764-3.739,0.229-7.475,1.109-10.779c0.215,0,0.328-0.215,0.546-0.332c0.885,3.195-2.093,6.71,0.447,9.578
			c2.749-2.647,1.095-7.593,3.509-10.575c0.558-0.762,1.444-1.544,2.312-0.882c1.444,2.653,0.884,6.386,4.298,7.71
			c8.911,1.874,18.594-0.218,24.768-6.381c1.856-2.206,3.845-4.627,2.96-7.593l-0.54,0.545c0.218,0.667-0.223,1.655-0.779,2.322
			h-0.334c-0.232-3.093,0.334-6.723,1.653-9.247C290.029,317.706,289.687,319.58,290.471,320.342z"/>
		<path d="M227.63,320.557c-0.105,1.324-1.541,1.55-2.415,2.1c-1.324-0.447-2.31-1.444-2.644-2.653
			C223.455,317.805,226.764,318.686,227.63,320.557z"/>
		<path d="M242.94,319.239c3.628,7.587,0.427,16.283-3.427,22.784c-1.646,2.092-4.169,3.399-6.595,3.954
			c-3.747-0.324-7.158-2.201-9.578-4.504c4.29,1.103,11.004,2.642,14.855-1.324c3.854-3.418,4.629-8.813,3.413-13.764
			c-1.759,2.756-0.664,7.059-3.965,8.69c2.529-4.831,0.993-11.332,4.516-15.836H242.94z"/>
		<path d="M328.983,321.328c0,1.22-0.778,2.206-1.87,2.642c-0.772-0.436-2.085-0.33-2.316-1.55
			C324.797,319.901,327.66,319.681,328.983,321.328z"/>
		<path d="M255.579,320.881c0.115,3.089-2.861,4.307-5.05,5.725c-0.447,0.221-0.665-0.221-0.993-0.441
			c-0.345-3.407,3.627-3.407,5.275-5.607L255.579,320.881z"/>
		<path d="M278.064,325.522c0.778,2.966-2.209,4.179-4.295,4.736c-1.974,0.105-1.646-2.421-1.321-3.633
			c0.769-0.989,1.216,0,1.872,0.545c0.438-2.53,2.85,0,3.192-2.427L278.064,325.522z"/>
		<path d="M233.36,335.413c0.656,1.103-0.885,2.209-1.547,2.862c-1.863,0.659-3.84,0.88-6.052,0.771
			c-1.089-1.424,0.653-2.094,1.326-2.868C229.064,335.522,231.603,336.405,233.36,335.413z"/>
		<path style="fill:#F3C727;stroke:#F3C727;stroke-width:1.0418;" d="M395.006,161.108c0.116,1.205,0,2.302-1.307,2.639
			c-0.998,0.105-1.666-0.554-2.107-1.321c-0.325-1.095,0.557-1.981,1.109-2.425C393.909,159.668,394.344,160.445,395.006,161.108z"
			/>
		<path style="fill:#F3C727;stroke:#F3C727;stroke-width:1.0418;" d="M118.463,163.192c-0.436,1.426-1.969,0.659-2.862,0.554
			c-0.209-0.882-0.761-1.434-0.551-2.416C116.039,159.118,120.013,160.556,118.463,163.192z"/>
		<path style="fill:#F3C727;stroke:#F3C727;stroke-width:1.0418;" d="M299.382,286.992c-0.215,0.215-0.325,0.673-0.765,0.55v-1.318
			l57.877-75.822l32.683-42.703h0.557L299.382,286.992z"/>
		<path style="fill:#F3C727;stroke:#F3C727;stroke-width:1.0418;" d="M120.882,167.923c18.382,24.764,36.441,46.886,54.699,71.097
			l36.425,47.757v1.097l-43.795-57.109l-47.872-62.842H120.882z"/>
		<path style="fill:#F3C727;stroke:#F3C727;stroke-width:1.0418;stroke-linecap:round;stroke-linejoin:round;" d="M262.74,353.355
			c6.481,8.366,12.439,16.174,18.483,24.755h-0.766l-19.029-25.085L262.74,353.355z"/>
		<polygon style="fill:#F3C727;stroke:#F3C727;stroke-width:1.0418;stroke-linecap:round;stroke-linejoin:round;" points="
			229.949,378.111 229.172,378.111 247.663,353.355 248.769,353.355 		"/>
		<path style="fill:#F3C727;" d="M470.282,137.557c-0.987,1.755-3.623,3.404-5.829,4.185l-96.842,4.83
			c-4.19,4.404-5.503,11.019-10.345,14.2c-7.367,6.493-17.827,7.816-23.552,16.177c-2.635,0-1.318,3.527-2.096,5.283
			c-1.416,2.199-2.635,5.834-6.037,5.498c-1.991,0.776,0.43,1.662-0.226,2.865c-0.325,2.752-1.318,5.173-3.204,7.15l-3.947,1.655
			c0.331,3.301-0.447,6.829-2.421,9.461c-0.987,1.762-5.283,1.541-3.634,4.733c-0.882,2.425-2.305,5.07-4.504,6.384
			c-6.067-1.433-2.206,6.494-7.379,6.601c-0.987-0.223-1.444,0.551-2.425,0.223c1.438-7.929,3.738-15.842,3.964-23.987l-9.253-7.709
			c14.09-20.243,23.122-51.283,52.827-52.268l123.041-5.281H470.282z"/>
		<path style="fill:#F3C727;" d="M170.512,143.383c26.315,5.834,33.58,32.574,47.33,51.5c-1.872,2.975-6.058,5.059-9.025,7.603
			c-0.105,8.475,1.971,16.724,3.957,24.645c-2.529-0.218-5.172-1.54-6.275-3.964c-0.438-4.294-6.267-2.198-7.152-6.935
			c-1.417-2.311-0.439-6.486-4.29-6.809c-1.977-2.766-3.736-6.171-2.633-9.584c-2.768-0.439-4.955-2.644-6.267-5.284
			c-2.426-2.2,1.872-8.031-3.747-7.043c-2.986-2.205-3.967-6.057-4.194-9.796c-3.187-0.218-3.509-3.517-5.829-5.059
			c-8.246-6.377-19.697-7.812-25.09-18.488c-1.539-2.533-2.09-5.937-5.068-7.369l-7.036-0.55l-85.067-3.412
			c-4.624,0.768-8.798-1.981-10.891-4.739L170.512,143.383z"/>
		<path style="fill:#F3C727;" d="M455.53,147.571c-0.877,1.645-2.41,2.739-3.964,3.738l-82.975,3.632
			c-0.314-1.097,0.888-2.206,1.335-3.414l17.485-0.99l61.745-2.966H455.53z"/>
		<path style="fill:#F3C727;" d="M139.919,151.527l2.311,3.746l-83.622-3.41c-1.55-0.993-3.308-2.096-4.307-3.75
			C83.695,148.875,111.532,150.766,139.919,151.527z"/>
		<path style="fill:#F3C727;" d="M440.24,156.814l-2.421,2.415c-12.992,0.771-24.318,1.655-37.531,1.327l-0.54-2.094
			C413.716,158.241,426.04,156.591,440.24,156.814z"/>
		<path style="fill:#F3C727;" d="M110.332,158.68c0.325,0.665-0.446,1.541-0.559,2.428c-12.876,0.32-24.983-0.551-37.746-1.325
			l-2.415-2.644L110.332,158.68z"/>
		<path style="fill:#F3C727;" d="M387.082,159.23c0.115,0.991,0.115,2.101-0.983,2.319c-7.929-0.665-14.75,1.315-22.454,1.103
			c-0.109-1.225,1.77-2.758,2.636-2.869C373.213,159.557,380.26,159.012,387.082,159.23z"/>
		<path style="fill:#F3C727;" d="M147.08,162.652c-7.599,0.54-15.512-0.882-23.546-0.778l-0.551-2.427l21.892,0.773L147.08,162.652z
			"/>
		<path style="fill:#F3C727;" d="M411.625,167.699l-15.517,0.441c4.411-3.956,12.665-2.083,17.932-2.636L411.625,167.699z"/>
		<polygon style="fill:#F3C727;" points="113.52,168.476 98.218,167.923 95.811,165.84 111.427,166.608 		"/>
		<path style="fill:#F3C727;" d="M384.777,166.608c-0.441,0.983-1.097,2.189-2.421,2.094l-27.947,0.768l3.414-1.77
			C367.274,167.699,375.309,166.608,384.777,166.608z"/>
		<polygon style="fill:#F3C727;" points="155.773,169.797 126.718,169.026 125.406,167.158 153.355,168.141 		"/>
		<path style="fill:#F3C727;" d="M403.702,173.209c-1.208,2.311-5.168,1.759-8.128,1.87c-0.452-0.769-1.445-0.769-1.12-1.87
			C397.542,173.209,401.281,173.209,403.702,173.209z"/>
		<path style="fill:#F3C727;" d="M110.543,173.752c0.551,0.769-0.656,1.437-1.542,1.327c-3.08,0.766-2.642-1.431-2.862-1.649
			L110.543,173.752z"/>
		<path style="fill:#F3C727;" d="M378.396,175.302c-11.999,0.769-23.888,0.769-35.435,1.099l2.415-1.65
			c10.907-0.113,22.35-0.998,33.792-0.998L378.396,175.302z"/>
		<path style="fill:#F3C727;" d="M165.566,175.302c1.103,0.105,1.103,0.979,2.093,1.311c-11.991,0.126-25.087,0.126-36.204-1.311
			l-0.551-0.993L165.566,175.302z"/>
		<path style="fill:#FFFFFF;" d="M280.675,198.847c4.183,2.315,7.16,4.851,10.778,7.597c-0.441,10.118-3.728,19.912-7.364,28.828
			c-1.986-1.874-4.401-0.877-6.819-0.765c-1.877,0.441-0.672,2.637-2.09,3.407c-0.779-0.331-0.889-1.427-0.889-2.424
			c2.98-1.871,3.856-5.054,3.743-8.359c4.619-3.852,7.158-9.024,9.022-14.307c-2.198-0.88-4.5,1.765-6.924,0.771
			c-1.434,0.547-2.752,1.107-4.187,1.659l1.865-10.907c-2.307-1.86-4.943,1.111-7.48,1.663c-3.861,2.853-7.485,6.703-8.902,11.324
			c-2.325,0.334-3.199-2.63-5.078-4.293c-3.736-4.616-10.67-2.416-14.189-7.03c-2.2,1.756-0.446,4.067-0.551,6.594
			c-3.413,0-6.826-1.98-10.006-2.418c-1.329,1.983,0.662,3.957,0.764,6.047c0.993,1.875,2.201,3.64,2.862,5.617
			c-2.42,1.645-5.07-0.986-7.372,0.218c1.751,6.71,7.584,9.687,13.201,12.658c-0.546,0.989,0.113,3.741-1.544,2.963
			c-0.433-0.885-0.32-1.974-1.095-2.636c-1.87-1.433-4.955-0.768-7.158-0.545c-2.862,0.327-0.656,4.402-3.956,3.619
			c-4.525-9.567-6.714-20.124-8.472-30.805c2.966-3.087,6.928-5.941,10.557-8.474C243.705,208.749,266.367,208.749,280.675,198.847z
			"/>
		<path style="fill:#00A651;stroke:#00A651;stroke-width:1.0418;stroke-linejoin:round;" d="M265.93,215.471
			c0.889-1.215,1.659-3.197,3.084-4.183C268.678,213.153,266.82,213.809,265.93,215.471z"/>
		<path style="fill:#00A651;stroke:#00A651;stroke-width:1.0418;stroke-linejoin:round;" d="M256.14,217.555
			c-1.656,0.769-2.977-1.103-4.289-1.536l-0.446-1.107C253.278,215.575,254.596,216.452,256.14,217.555z"/>
		<path style="fill:#00A651;stroke:#00A651;stroke-width:1.0418;stroke-linejoin:round;" d="M268.565,219.427
			c0.45-1.541,2.096-2.758,2.868-3.748C270.994,217.23,269.891,218.545,268.565,219.427z"/>
		<path style="fill:#00A651;stroke:#00A651;stroke-width:1.0418;stroke-linejoin:round;" d="M251.851,220.751
			c-1.653-1.103-3.528-2.427-4.736-4.189C248.543,217.886,251.623,219.099,251.851,220.751z"/>
		<path style="fill:#00A651;stroke:#00A651;stroke-width:1.0418;stroke-linejoin:round;" d="M242.94,222.843
			c-2.98-0.994-4.635-2.971-6.609-5.288C237.98,219.978,240.945,220.969,242.94,222.843z"/>
		<path style="fill:#00A651;stroke:#00A651;stroke-width:1.0418;stroke-linejoin:round;" d="M274.841,224.488
			c0.338-1.768,2.968-1.209,3.192-2.968c0.993-0.438,2.098-1.871,2.424-3.195l-0.325-0.218l1.092-0.551
			C278.802,219.754,278.913,224.934,274.841,224.488z"/>
		<path style="fill:#00A651;stroke:#00A651;stroke-width:1.0418;stroke-linejoin:round;" d="M246.116,220.969
			c-1.311-0.656-2.853-1.65-3.518-2.862C243.805,219.099,245.679,219.21,246.116,220.969z"/>
		<path style="fill:#00A651;stroke:#00A651;stroke-width:1.0418;stroke-linejoin:round;" d="M273.862,220.969
			c0.427,2.748-2.65,1.326-3.745,2.415c-2.427,1.332-4.187,4.298-6.611,5.505c-0.438-1.759,1.768-0.775,2.092-1.759
			C267.465,223.946,270.661,221.952,273.862,220.969z"/>
		<path style="fill:#D2232A;stroke:#D2232A;stroke-width:1.3;stroke-linecap:round;stroke-linejoin:round;" d="M260.868,224.934
			c-1.326,0.877-2.206-0.882-3.417-0.989c1.434,0.106,3.306,0.204,4.186-1.879C262.078,222.952,261.427,224.15,260.868,224.934z"/>
		<path style="fill:#00A651;stroke:#00A651;stroke-width:1.0418;stroke-linejoin:round;" d="M240.512,230.212
			c-2.531,0.332-5.507-2.202-7.152-4.401C235.118,228.22,238.526,228.672,240.512,230.212z"/>
		<path style="fill:#D2232A;stroke:#D2232A;stroke-width:1.3;stroke-linecap:round;stroke-linejoin:round;" d="M243.705,227.131
			c-0.88,1.208-2.534-0.113-2.647-0.884L243.705,227.131z"/>
		<path style="fill:#D2232A;stroke:#D2232A;stroke-width:1.3;stroke-linecap:round;stroke-linejoin:round;" d="M275.179,229.224
			c0.542,1.103-0.443,2.63-1.659,3.186c-1.324,0.332-2.308-0.556-2.86-1.318c-0.331-0.223-0.331-0.547-0.331-0.88
			C272.089,230.983,273.862,230.327,275.179,229.224z"/>
		<path style="fill:#D2232A;stroke:#D2232A;stroke-width:1.3;stroke-linecap:round;stroke-linejoin:round;" d="M260.316,229.775
			c-0.775,0.99-0.325,3.291-2.314,3.082c-0.979-0.229-1.321-0.561-2.206-1.003C257.451,231.971,259.221,230.868,260.316,229.775z"/>
		<path style="fill:#D2232A;stroke:#D2232A;stroke-width:1.3;stroke-linecap:round;stroke-linejoin:round;" d="M252.395,232.078
			c-0.772,0.55-2.313,0.332-2.313-0.771l2.313-0.762V232.078z"/>
		<path style="fill:#D2232A;stroke:#D2232A;stroke-width:1.3;stroke-linecap:round;stroke-linejoin:round;" d="M251.405,237.355
			c-0.229,0.115-0.32,0.332-0.543,0.332v-1.313C251.085,236.593,251.518,236.92,251.405,237.355z"/>
		<path style="fill:#D2232A;stroke:#D2232A;stroke-width:1.3;stroke-linecap:round;stroke-linejoin:round;" d="M264.062,236.802
			c-0.332,0.455-0.228,1.437-1.102,1.111h-0.767v-1.539C262.845,236.487,263.73,236.043,264.062,236.802z"/>
		<path style="fill:#00AEEF;" d="M273.297,240.55c1.882,0.334,4.289,0.679,5.505-1.313c-0.328-0.998,0.552-1.55,1.111-2.093
			c1.428,0.211,1.533,2.54,1.864,3.964l-0.882,1.868c-8.911,0.667-18.925-0.332-27.185,0.768l-0.771-0.55l-22.443-0.218
			c-0.548-0.656-0.995-0.656-0.774-1.655c3.308-0.214,1.654-5.609,5.828-3.967c0.334,1.664,1.109,3.31,2.868,3.753
			c2.421,0.327,4.734-0.338,5.501-2.643c-0.115-0.882,0.885-1.208,1.659-1.11c2.625-0.098,1.864,4.191,4.95,3.753
			c5.268,1.868,2.635-6.928,7.912-3.421c0,1.332,0.99,2.54,2.206,3.083c2.093-0.325,4.951,0.88,6.266-1.31
			c0.116-1.109,0.676-2.753,2.101-2.658C272.089,236.375,271.212,239.461,273.297,240.55z"/>
		<path style="fill:#FFFFFF;" d="M232.367,248.479l-1.106-1.543c0.659-0.33,1.875-0.771,2.644-0.33L232.367,248.479z"/>
		<path style="fill:#FFFFFF;" d="M242.381,246.607c-0.667,1.321-2.42,1.541-3.187,0.33
			C239.737,246.057,241.504,246.28,242.381,246.607z"/>
		<path style="fill:#FFFFFF;" d="M251.085,246.607c-0.452,0.444-1.439,1.759-2.316,1.103l-0.885-1.327
			C248.984,246.501,250.197,246.166,251.085,246.607z"/>
		<path style="fill:#FFFFFF;" d="M259.541,246.607c-0.32,0.444-0.88,1.433-1.87,1.103l-0.99-1.103
			C257.671,246.825,258.661,246.166,259.541,246.607z"/>
		<path style="fill:#FFFFFF;" d="M268.245,246.607c-0.223,0.991-2.206,1.321-2.647,0H268.245z"/>
		<path style="fill:#FFFFFF;" d="M276.718,246.607c-0.436,0.762-1.877,0.762-2.428,0H276.718z"/>
		<path style="fill:#FFFFFF;" d="M276.494,248.694l0.223,0.334l-1.103,1.332c-1.433,0.108-2.318-1.227-3.418-2.101
			c-1.536-0.889-2.975,0.874-3.951,1.759c-1.878,0.993-3.418-0.328-4.739-1.539c-1.428-0.221-2.859,0.215-3.411,1.539
			c-1.434,0.993-3.956,0.769-4.726-0.99c-1.768-1.659-3.195,0.769-4.507,1.536c-1.988,0.998-3.977-0.433-4.746-1.87
			c-1.54-0.328-2.52,0.551-3.518,1.666c-1.863,1.423-4.072-0.342-5.288-1.666c-1.759-0.436-2.853,1.985-3.951,1.87
			c5.835,10.282,5.875,10.519,8.634,13.916c4.298,5.292,10.005,10.428,13.585,13.601c8.256-8.696,17.616-19.148,23.006-30.153
			v-1.321C277.379,246.607,277.477,248.923,276.494,248.694z"/>
		<path style="fill:#00AEEF;" d="M274.618,251.678c0.119,0.866-0.552,1.754-1.321,2.086c-0.758-0.88-1.864-1.877-2.967-1.109
			c-1.208,1.765-3.075,2.767-4.944,1.885c-0.896-0.891-2.201-2.427-3.749-1.547c-0.99,1.318-3.634,3.627-5.497,1.547
			c-0.882-1.22-2.538-2.217-3.745-1c-0.438,1.539-1.988,2.092-3.626,1.768c-1.884,0-2.752-3.086-4.849-1.544
			c-0.553,1.097-1.208,1.659-2.311,2.089c-2.528,0.768-3.303-2.421-5.602-2.089c-0.778-0.444-0.662-1.22-1.001-1.877
			c0.659-0.982,2.096-0.325,3.19-0.543c3.518,6.268,6.828-4.737,10.789,1.649c1.983,0.438,2.305-1.878,3.734-2.087
			c1.766-1.109,3.964,0.543,5.285,1.75c0,0.338-0.113,0.665,0.226,0.885c0.656-1.103,1.649-2.092,2.857-2.977
			c3.742-2.854,6.057,5.839,8.806-0.204C271.546,249.69,273.41,250.241,274.618,251.678z"/>
		<path style="fill:#00AEEF;" d="M270.33,257.71c-1.208,1.765-3.075,2.755-4.944,1.881c-0.896-0.876-2.201-2.425-3.749-1.54
			c-0.99,1.315-3.634,3.622-5.497,1.54c-0.882-1.213-2.538-2.208-3.745-0.996c-0.438,1.536-1.988,2.093-3.626,1.765
			c-1.884,0-2.752-3.091-4.849-1.541c-0.553,1.097-1.208,1.646-2.311,2.085c-0.896,0.278-1.574,0.046-2.178-0.342
			c-1.094-0.707-1.786-4.06-1.235-4.164c3.518,6.273,6.828-4.73,10.789,1.653c1.983,0.447,2.305-1.871,3.734-2.094
			c1.766-1.097,3.964,0.544,5.285,1.754c0,0.341-0.113,0.667,0.226,0.885c0.656-1.098,1.649-2.094,2.857-2.971
			c3.742-2.857,6.057,5.831,8.806-0.223C271.546,254.75,271.433,256.947,270.33,257.71z"/>
		<path style="fill:#00AEEF;" d="M266.913,262.784c-0.218,0.55-0.444,1.103-0.983,1.544c-4.073-5.51-7.045,5.392-10.896-1.324
			c-2.421,0-3.516,3.192-6.265,2.427c-0.67-1.103-2.308-3.094-3.964-1.877c-0.553,0.441-0.885,0.989-1.652,0.773
			c-0.993-1.324-0.441-1.762,0.552-2.642c1.198-0.767,3.181-1.222,4.499-0.223c2.973,4.63,4.409-3.41,8.478-0.334
			c0.342,0.656,1.321,1.109,2.093,1.655c1.768-0.998,3.634-3.08,6.273-1.864L266.913,262.784z"/>
		<path style="fill:#00AEEF;" d="M264.28,265.64c0.324,2.094-2.643,2.642-3.964,3.971c-3.406,1.642-5.832-4.633-8.693,0.219
			c-3.524,1.423-4.291-2.096-6.044-3.964c1.969-0.888,3.612,1.544,5.284,1.868c1.533-2.206,3.949-2.524,6.275-1.539
			c0.753,0.768,1.638,1.871,2.959,0.989C261.085,265.867,262.627,264.872,264.28,265.64z"/>
		<path style="fill:#00AEEF;" d="M254.258,272.246c1-0.331,0.776,0.11,1.539-0.766c-0.103-0.331-0.427-0.331-0.762-0.331v-0.436
			c1.543-0.226,2.103,0.767,2.968,1.533c-0.551,0.772-0.866,1.66-2.206,1.333v-0.23l-3.946-0.331
			c-0.989-1.765,1.089-2.427,2.407-2.647V272.246z"/>
		<path style="fill:#ED1C24;" d="M390.147,164.198c0,0-0.148,20.405-7.907,36.682c0,0,12.699,17.616,21.618,36.225
			c3.408,7.111,16.399,39.706,5.32,62.911c-11.784,24.672-38.215,33.272-46.574,35.236c-16.404,3.884-39.53,2.564-39.53,2.564
			s-1.787,0.179-3.602,1.352c0,0,15.38,11.427,35.275,11.427c6.303,0,31.327,0.475,51.299-13.438
			c7.235-5.04,29.591-17.344,37.856-57.327c2.713-13.13,0.662-25.264-3.579-41.17c-8.724-32.742-40.839-64.35-40.839-64.35
			S391.609,166.3,390.147,164.198"/>
		<path style="fill:#ED1C24;" d="M116.211,164.198c0,0,0.148,20.405,7.907,36.682c0,0-12.699,17.616-21.618,36.225
			c-3.408,7.111-16.399,39.706-5.32,62.911c11.784,24.672,38.215,33.272,46.574,35.236c16.404,3.884,39.53,2.564,39.53,2.564
			s1.787,0.179,3.602,1.352c0,0-15.38,11.427-35.275,11.427c-6.303,0-31.328,0.475-51.299-13.438
			c-7.235-5.04-29.591-17.344-37.856-57.327c-2.713-13.13-0.662-25.264,3.579-41.17c8.724-32.742,40.839-64.35,40.839-64.35
			S114.749,166.3,116.211,164.198"/>
	</g>
	<path style="fill:#D2232A;stroke:#D2232A;stroke-width:0.75;stroke-linecap:round;stroke-linejoin:round;" d="M251.49,225.98
		c-0.771,0.552-2.312,0.334-2.312-0.769l2.312-0.764V225.98z"/>
	<path d="M272.4,343.361c0.656,1.103-0.885,2.209-1.547,2.862c-1.863,0.659-3.84,0.88-6.051,0.771
		c-1.089-1.424,0.653-2.094,1.326-2.868C268.106,343.47,270.644,344.352,272.4,343.361z"/>
	<path d="M192.639,331.755c-0.802,0.341-2.409,0.254-2.059,1.647c1.698,0.804,3.329,1.293,5.026,1.424
		c0.752-0.257,2.355-0.556,2.23-1.572C196.105,333.4,194.425,331.928,192.639,331.755z"/>
</g>
</svg>
